<svg width="19" height="19" viewBox="0 0 19 19" fill="none" xmlns="http://www.w3.org/2000/svg">
<path d="M7.7211 8.60031C7.87402 8.48956 7.94785 8.30675 7.94785 8.05538C7.95313 7.93585 7.92852 7.81808 7.87578 7.71085C7.82832 7.62472 7.75801 7.55265 7.67188 7.50167C7.58257 7.44751 7.48338 7.41166 7.38008 7.3962C7.26758 7.37511 7.15332 7.36456 7.04082 7.36632H5.80508V8.7673H7.14277C7.37305 8.76906 7.56817 8.71281 7.7211 8.60031ZM7.92852 9.86593C7.75625 9.7341 7.52598 9.66906 7.23945 9.66906H5.80156V11.3214H7.21133C7.34316 11.3214 7.46445 11.3091 7.58223 11.2845C7.69366 11.2627 7.79988 11.2197 7.89512 11.1579C7.98477 11.0999 8.05684 11.0208 8.11133 10.9189C8.16406 10.8169 8.19043 10.6868 8.19043 10.5304C8.19043 10.2193 8.10254 9.99953 7.92852 9.86593ZM9.33301 1.45831C4.98418 1.45831 1.45801 4.98449 1.45801 9.33331C1.45801 13.6821 4.98418 17.2083 9.33301 17.2083C13.6818 17.2083 17.208 13.6821 17.208 9.33331C17.208 4.98449 13.6818 1.45831 9.33301 1.45831ZM10.8535 6.50148H13.2863V7.09386H10.8535V6.50148ZM9.33301 11.3864C9.21922 11.6024 9.05673 11.789 8.8584 11.9314C8.65098 12.0755 8.4207 12.181 8.17637 12.2425C7.92074 12.311 7.65703 12.3447 7.39238 12.3427H4.48145V6.34679H7.31152C7.59805 6.34679 7.8582 6.37316 8.09551 6.42238C8.33106 6.4716 8.53145 6.55597 8.7002 6.67023C8.86719 6.78449 8.99902 6.93742 9.09219 7.12726C9.1836 7.31535 9.23106 7.55089 9.23106 7.83038C9.23106 8.13273 9.1625 8.38234 9.02539 8.58449C8.88653 8.78663 8.68613 8.95011 8.41367 9.07843C8.78457 9.1839 9.05703 9.37199 9.23633 9.63566C9.41914 9.90285 9.50879 10.2228 9.50879 10.5989C9.50879 10.9048 9.45078 11.1667 9.33301 11.3864ZM14.2338 10.4583H11.0979C11.0979 10.7993 11.2156 11.1263 11.3932 11.3021C11.5725 11.4761 11.8291 11.564 12.1648 11.564C12.4074 11.564 12.6131 11.5025 12.7889 11.3812C12.9629 11.2599 13.0684 11.1316 13.107 10.998H14.1582C13.9895 11.52 13.7328 11.8927 13.3848 12.1177C13.0402 12.3427 12.6184 12.4552 12.1279 12.4552C11.7852 12.4552 11.4775 12.3989 11.2016 12.2917C10.9361 12.188 10.6971 12.0298 10.5002 11.8259C10.3061 11.6165 10.156 11.3702 10.059 11.1017C9.95176 10.8046 9.89903 10.4917 9.90254 10.1771C9.90254 9.85187 9.95703 9.54953 10.0625 9.26828C10.2647 8.7216 10.6848 8.2839 11.2209 8.05714C11.5074 7.93761 11.815 7.87785 12.1262 7.88136C12.4953 7.88136 12.8152 7.95167 13.093 8.09581C13.3603 8.23346 13.5925 8.43072 13.7715 8.67238C13.949 8.9132 14.0738 9.18742 14.1529 9.49679C14.2285 9.80089 14.2549 10.1208 14.2338 10.4583ZM12.0893 8.77785C11.8994 8.77785 11.7395 8.81124 11.6164 8.87628C11.4934 8.94132 11.3914 9.02218 11.3141 9.11535C11.2404 9.2053 11.186 9.30939 11.1541 9.42121C11.126 9.51437 11.1066 9.60929 11.0996 9.70597H13.042C13.0139 9.40187 12.9084 9.17687 12.7678 9.01867C12.6201 8.86222 12.3828 8.77785 12.0893 8.77785Z" fill="#D8A3DD"/>
</svg>
