<svg width="19" height="19" viewBox="0 0 19 19" fill="none" xmlns="http://www.w3.org/2000/svg">
<g clip-path="url(#clip0_10_184)">
<path fill-rule="evenodd" clip-rule="evenodd" d="M2.375 18.4062V2.375C2.375 1.74511 2.62522 1.14102 3.07062 0.695621C3.51602 0.250223 4.12011 0 4.75 0L14.25 0C14.8799 0 15.484 0.250223 15.9294 0.695621C16.3748 1.14102 16.625 1.74511 16.625 2.375V18.4062C16.6251 18.5094 16.5983 18.6107 16.5473 18.7003C16.4963 18.7899 16.4229 18.8647 16.3342 18.9173C16.2455 18.9699 16.1447 18.9986 16.0416 19.0003C15.9385 19.0021 15.8367 18.9771 15.7463 18.9276L9.5 15.5194L3.25375 18.9276C3.1633 18.9771 3.06152 19.0021 2.95842 19.0003C2.85533 18.9986 2.75449 18.9699 2.66581 18.9173C2.57713 18.8647 2.50368 18.7899 2.45269 18.7003C2.4017 18.6107 2.37492 18.5094 2.375 18.4062ZM9.69 4.86875C9.67264 4.83314 9.64562 4.80313 9.61203 4.78213C9.57843 4.76113 9.53962 4.75 9.5 4.75C9.46038 4.75 9.42157 4.76113 9.38797 4.78213C9.35438 4.80313 9.32736 4.83314 9.31 4.86875L8.55712 6.39469C8.54205 6.42556 8.51969 6.45228 8.49196 6.47256C8.46423 6.49284 8.43198 6.50605 8.398 6.51106L6.71175 6.75569C6.67293 6.76158 6.63652 6.77816 6.6066 6.80359C6.57668 6.82901 6.55443 6.86226 6.54234 6.89962C6.53026 6.93698 6.52882 6.97697 6.53819 7.0151C6.54756 7.05323 6.56736 7.08799 6.59538 7.1155L7.81375 8.30419C7.86363 8.35287 7.88619 8.42294 7.87431 8.49181L7.58812 10.1709C7.58167 10.2097 7.58615 10.2495 7.60107 10.2859C7.61599 10.3222 7.64076 10.3537 7.67258 10.3768C7.70441 10.3999 7.74203 10.4136 7.78124 10.4165C7.82044 10.4193 7.85966 10.4112 7.8945 10.393L9.40263 9.59975C9.43286 9.58393 9.46647 9.57568 9.50059 9.57568C9.53471 9.57568 9.56833 9.58393 9.59856 9.59975L11.1067 10.393C11.1415 10.4109 11.1806 10.4187 11.2196 10.4157C11.2586 10.4127 11.296 10.3989 11.3276 10.3759C11.3593 10.3529 11.3839 10.3215 11.3988 10.2853C11.4136 10.2492 11.4182 10.2095 11.4119 10.1709L11.1245 8.49063C11.1184 8.45688 11.1207 8.42217 11.131 8.38948C11.1414 8.35679 11.1595 8.32711 11.1839 8.303L12.4046 7.11431C12.4326 7.08681 12.4524 7.05204 12.4618 7.01391C12.4712 6.97578 12.4697 6.93579 12.4577 6.89844C12.4456 6.86108 12.4233 6.82782 12.3934 6.8024C12.3635 6.77698 12.3271 6.76039 12.2882 6.7545L10.602 6.50987C10.568 6.50487 10.5358 6.49165 10.508 6.47137C10.4803 6.4511 10.4579 6.42437 10.4429 6.3935L9.69 4.86875Z" fill="#D9D9D9"/>
</g>
<defs>
<clipPath id="clip0_10_184">
<rect width="19" height="19" fill="white"/>
</clipPath>
</defs>
</svg>
