<svg width="22" height="22" viewBox="0 0 22 22" fill="none" xmlns="http://www.w3.org/2000/svg">
<path fill-rule="evenodd" clip-rule="evenodd" d="M16.8694 5.16358C16.1071 4.39622 15.2 3.78777 14.2009 3.37347C13.2017 2.95916 12.1302 2.74725 11.0486 2.75C6.51292 2.75 2.82058 6.44141 2.81875 10.9789C2.81875 12.4291 3.19733 13.8444 3.91692 15.0929L2.75 19.3563L7.11242 18.2114C8.31911 18.8683 9.67102 19.2127 11.0449 19.2133H11.0486C15.5833 19.2133 19.2757 15.5219 19.2775 10.9844C19.2806 9.90319 19.0694 8.83207 18.6561 7.83297C18.2427 6.83386 17.6355 5.92659 16.8694 5.16358ZM11.0486 17.8246H11.0458C9.82072 17.8247 8.61816 17.4951 7.56433 16.8703L7.315 16.7218L4.72633 17.4011L5.41658 14.8775L5.25433 14.619C4.56939 13.5286 4.2068 12.2666 4.20842 10.9789C4.21025 7.20775 7.27833 4.13966 11.0513 4.13966C11.9499 4.13767 12.8399 4.3139 13.6699 4.65818C14.4999 5.00245 15.2534 5.50792 15.8867 6.14533C16.5235 6.7797 17.0282 7.53398 17.3716 8.36458C17.7151 9.19517 17.8906 10.0856 17.8878 10.9844C17.886 14.7556 14.8179 17.8246 11.0486 17.8246ZM14.8005 12.7013C14.5942 12.5977 13.5841 12.1009 13.3953 12.0322C13.2073 11.9634 13.0708 11.9295 12.9333 12.1348C12.7958 12.3402 12.4016 12.8031 12.2815 12.9406C12.1614 13.0781 12.0413 13.0946 11.836 12.9919C11.6307 12.8892 10.9679 12.672 10.1823 11.9717C9.57092 11.4262 9.15842 10.7534 9.03833 10.5472C8.91825 10.3409 9.0255 10.23 9.12908 10.1273C9.22167 10.0357 9.33442 9.88716 9.43708 9.76708C9.53975 9.64699 9.57367 9.56175 9.64242 9.42424C9.71117 9.28675 9.67725 9.16666 9.625 9.06399C9.57367 8.96041 9.16208 7.94841 8.99067 7.53683C8.82475 7.13808 8.65517 7.19125 8.52867 7.18575C8.39765 7.18039 8.26654 7.17794 8.13542 7.17841C8.03115 7.18107 7.92856 7.20524 7.83407 7.24941C7.73959 7.29357 7.65524 7.35679 7.58633 7.43508C7.3975 7.64133 6.86675 8.13816 6.86675 9.15016C6.86675 10.1622 7.60375 11.1402 7.70642 11.2777C7.80908 11.4152 9.15658 13.4915 11.2191 14.3825C11.7104 14.5942 12.0936 14.7207 12.3915 14.8161C12.8837 14.9728 13.332 14.9499 13.6868 14.8977C14.0818 14.839 14.9032 14.4008 15.0746 13.9205C15.246 13.4402 15.246 13.0286 15.1947 12.9424C15.1433 12.8562 15.0049 12.804 14.8005 12.7013Z" fill="#D8A3DD"/>
</svg>
