<svg width="14" height="14" viewBox="0 0 14 14" fill="none" xmlns="http://www.w3.org/2000/svg">
<path d="M3.63575 3.40317L3.89534 2.10467C3.94822 1.8401 4.09117 1.60203 4.29985 1.431C4.50852 1.25998 4.77003 1.16656 5.03984 1.16667H8.95984C9.22965 1.16656 9.49115 1.25998 9.69983 1.431C9.90851 1.60203 10.0515 1.8401 10.1043 2.10467L10.3639 3.40317C10.4047 3.60663 10.5023 3.79435 10.6456 3.9445C10.7888 4.09464 10.9717 4.20105 11.173 4.25134C11.6473 4.36998 12.0682 4.64373 12.369 5.0291C12.6699 5.41446 12.8332 5.88931 12.8332 6.37817V10.5C12.8332 11.1188 12.5873 11.7123 12.1498 12.1499C11.7122 12.5875 11.1187 12.8333 10.4998 12.8333H3.49984C2.881 12.8333 2.28751 12.5875 1.84992 12.1499C1.41234 11.7123 1.1665 11.1188 1.1665 10.5V6.37817C1.16646 5.88931 1.32982 5.41446 1.63063 5.0291C1.93144 4.64373 2.35242 4.36998 2.82667 4.25134C3.02799 4.20105 3.21089 4.09464 3.35412 3.9445C3.49734 3.79435 3.59501 3.60663 3.63575 3.40317V3.40317Z" stroke="#D8A3DD" stroke-width="1.5" stroke-linecap="round" stroke-linejoin="round"/>
<path d="M6.99984 10.5C8.2885 10.5 9.33317 9.45534 9.33317 8.16668C9.33317 6.87801 8.2885 5.83334 6.99984 5.83334C5.71117 5.83334 4.6665 6.87801 4.6665 8.16668C4.6665 9.45534 5.71117 10.5 6.99984 10.5Z" stroke="#D8A3DD" stroke-width="1.5" stroke-linecap="round" stroke-linejoin="round"/>
<path d="M6.4165 3.5H7.58317" stroke="#D8A3DD" stroke-width="1.5" stroke-linecap="round" stroke-linejoin="round"/>
</svg>
