<svg width="18" height="17" viewBox="0 0 18 17" fill="none" xmlns="http://www.w3.org/2000/svg">
<g clip-path="url(#clip0_41_499)">
<path d="M17.0728 8.33332C17.0728 3.87369 13.4596 0.260406 8.99992 0.260406C4.54028 0.260406 0.927002 3.87369 0.927002 8.33332C0.927002 12.3626 3.87915 15.7025 7.73852 16.3086V10.667H5.68774V8.33332H7.73852V6.55468C7.73852 4.53156 8.94295 3.41405 10.7877 3.41405C11.6711 3.41405 12.595 3.5716 12.595 3.5716V5.55728H11.5767C10.5741 5.55728 10.2613 6.17968 10.2613 6.81802V8.33332H12.5002L12.1422 10.667H10.2613V16.3086C14.1207 15.7025 17.0728 12.3626 17.0728 8.33332Z" fill="#D8A3DD"/>
</g>
<defs>
<clipPath id="clip0_41_499">
<rect width="16.6667" height="16.6667" fill="white" transform="translate(0.666504)"/>
</clipPath>
</defs>
</svg>
