<svg width="22" height="22" viewBox="0 0 22 22" fill="none" xmlns="http://www.w3.org/2000/svg">
<path d="M3.93526 9.81475L10.3519 3.39809C10.5238 3.22624 10.7569 3.1297 11 3.1297C11.2431 3.1297 11.4762 3.22624 11.6481 3.39809L18.0648 9.81475C18.2367 9.98662 18.3333 10.2197 18.3333 10.4628V19.25C18.3333 19.4931 18.2368 19.7263 18.0649 19.8982C17.8929 20.0701 17.6598 20.1667 17.4167 20.1667H12.8333V13.75H9.16667V20.1667H4.58334C4.34022 20.1667 4.10707 20.0701 3.93516 19.8982C3.76325 19.7263 3.66667 19.4931 3.66667 19.25V10.4628C3.66672 10.2197 3.76334 9.98662 3.93526 9.81475Z" fill="#15375A"/>
</svg>
