<svg width="22" height="22" viewBox="0 0 22 22" fill="none" xmlns="http://www.w3.org/2000/svg">
<path d="M11.0002 20.1667C5.93741 20.1667 1.8335 16.0627 1.8335 11C1.8335 5.93725 5.93741 1.83333 11.0002 1.83333C12.4234 1.83226 13.8273 2.16312 15.1003 2.79963C16.3734 3.43613 17.4804 4.36074 18.3335 5.5H15.8493C14.7908 4.56661 13.4854 3.95849 12.0898 3.74862C10.6942 3.53874 9.26772 3.73602 7.98148 4.31678C6.69523 4.89754 5.60388 5.83711 4.83839 7.02275C4.0729 8.20839 3.66579 9.58973 3.66591 11.001C3.66603 12.4123 4.07337 13.7936 4.83906 14.9791C5.60474 16.1646 6.69625 17.104 7.98259 17.6845C9.26893 18.2651 10.6955 18.4621 12.091 18.252C13.4866 18.0419 14.7919 17.4336 15.8502 16.5H18.3344C17.4812 17.6394 16.374 18.5641 15.1009 19.2006C13.8277 19.8371 12.4236 20.1679 11.0002 20.1667ZM17.4168 14.6667V11.9167H10.0835V10.0833H17.4168V7.33333L22.0002 11L17.4168 14.6667Z" fill="#D8A3DD"/>
</svg>
