<svg width="18" height="18" viewBox="0 0 18 18" fill="none" xmlns="http://www.w3.org/2000/svg">
<path d="M8.77158 0C3.95452 0 0 3.75496 0 8.40609C0 10.8841 1.14761 13.0857 2.92386 14.6193V18L6.16788 16.378C6.99241 16.6265 7.85495 16.8122 8.77158 16.8122C13.5886 16.8122 17.5432 13.0572 17.5432 8.40609C17.5432 3.75496 13.5886 0 8.77158 0ZM8.77158 1.46193C12.835 1.46193 16.0812 4.58022 16.0812 8.40609C16.0812 12.232 12.835 15.3503 8.77158 15.3503C7.89808 15.3503 7.06404 15.1843 6.28191 14.9161L5.98514 14.8247L4.38579 15.6244V13.9797L4.11168 13.7509C2.48967 12.4724 1.46193 10.5566 1.46193 8.40609C1.46193 4.58022 4.70815 1.46193 8.77158 1.46193ZM7.94924 6.09917L3.54079 10.7591L7.49239 8.56617L9.59391 10.8278L13.957 6.09844L10.0961 8.2694L7.94924 6.09917Z" fill="#D8A3DD"/>
</svg>
