<svg width="18" height="18" viewBox="0 0 18 18" fill="none" xmlns="http://www.w3.org/2000/svg">
<path d="M15.75 1.125H2.25C1.95163 1.125 1.66548 1.24353 1.4545 1.4545C1.24353 1.66548 1.125 1.95163 1.125 2.25L1.125 15.75C1.125 16.0484 1.24353 16.3345 1.4545 16.5455C1.66548 16.7565 1.95163 16.875 2.25 16.875H15.75C16.0484 16.875 16.3345 16.7565 16.5455 16.5455C16.7565 16.3345 16.875 16.0484 16.875 15.75V2.25C16.875 1.95163 16.7565 1.66548 16.5455 1.4545C16.3345 1.24353 16.0484 1.125 15.75 1.125ZM14.625 3.375V7.875H10.125V3.375H14.625ZM7.875 3.375V7.875H3.375V3.375H7.875ZM3.375 14.625V10.125H7.875V14.625H3.375ZM10.125 14.625V10.125H14.625V14.625H10.125Z" fill="#D8A3DD"/>
</svg>
