<svg width="17" height="17" viewBox="0 0 17 17" fill="none" xmlns="http://www.w3.org/2000/svg">
<g clip-path="url(#clip0_41_502)">
<path d="M14.9534 4.9386C14.964 5.08664 14.964 5.23472 14.964 5.38277C14.964 9.89839 11.5271 15.1014 5.24534 15.1014C3.31006 15.1014 1.51227 14.5409 0 13.5681C0.274967 13.5998 0.539323 13.6103 0.824869 13.6103C2.42171 13.6103 3.8917 13.071 5.06556 12.151C3.56387 12.1192 2.3054 11.1357 1.87181 9.78208C2.08333 9.81379 2.29482 9.83495 2.51693 9.83495C2.8236 9.83495 3.1303 9.79263 3.41582 9.71864C1.85068 9.40135 0.67679 8.02658 0.67679 6.36626V6.32398C1.13151 6.57779 1.66032 6.73641 2.22077 6.75754C1.30072 6.14416 0.697949 5.09722 0.697949 3.91278C0.697949 3.27828 0.867122 2.69664 1.16325 2.18902C2.84473 4.26177 5.37223 5.61539 8.20638 5.76346C8.15351 5.50966 8.12177 5.2453 8.12177 4.98091C8.12177 3.09849 9.64462 1.56509 11.5376 1.56509C12.5211 1.56509 13.4094 1.97753 14.0334 2.64377C14.8053 2.49573 15.5456 2.21018 16.2013 1.8189C15.9475 2.61207 15.4081 3.27831 14.6996 3.70129C15.387 3.6273 16.0532 3.4369 16.6666 3.17255C16.2014 3.84934 15.6197 4.4521 14.9534 4.9386Z" fill="#D8A3DD"/>
</g>
<defs>
<clipPath id="clip0_41_502">
<rect width="16.6667" height="16.6667" fill="white"/>
</clipPath>
</defs>
</svg>
