<svg width="20" height="20" viewBox="0 0 20 20" fill="none" xmlns="http://www.w3.org/2000/svg">
<path d="M2.14307 4.10714C2.14307 3.58618 2.35002 3.08655 2.71839 2.71818C3.08677 2.3498 3.58639 2.14285 4.10735 2.14285H13.7502C14.2712 2.14285 14.7708 2.3498 15.1392 2.71818C15.5075 3.08655 15.7145 3.58618 15.7145 4.10714V5.00571C16.3925 5.05101 17.028 5.35232 17.4922 5.8486C17.9563 6.34488 18.2146 6.99903 18.2145 7.67857V15.1786C18.2145 15.889 17.9323 16.5703 17.43 17.0726C16.9276 17.5749 16.2463 17.8571 15.5359 17.8571H4.8245C4.11409 17.8571 3.43279 17.5749 2.93046 17.0726C2.42813 16.5703 2.14592 15.889 2.14592 15.1786V7.67857H2.14307V4.28571H2.15092C2.14563 4.22633 2.14301 4.16675 2.14307 4.10714ZM14.6431 4.10714C14.6431 3.61428 14.2431 3.21428 13.7502 3.21428H4.10735C3.87055 3.21428 3.64345 3.30835 3.47601 3.47579C3.30856 3.64324 3.2145 3.87034 3.2145 4.10714C3.2145 4.34394 3.30856 4.57104 3.47601 4.73848C3.64345 4.90593 3.87055 5 4.10735 5H14.6431V4.10714ZM13.3931 11.4286C13.251 11.4286 13.1147 11.485 13.0143 11.5855C12.9138 11.6859 12.8574 11.8222 12.8574 11.9643C12.8574 12.1064 12.9138 12.2426 13.0143 12.3431C13.1147 12.4436 13.251 12.5 13.3931 12.5H15.1788C15.3209 12.5 15.4571 12.4436 15.5576 12.3431C15.6581 12.2426 15.7145 12.1064 15.7145 11.9643C15.7145 11.8222 15.6581 11.6859 15.5576 11.5855C15.4571 11.485 15.3209 11.4286 15.1788 11.4286H13.3931Z" fill="#D8A3DD"/>
</svg>
