<svg width="21" height="20" viewBox="0 0 21 20" fill="none" xmlns="http://www.w3.org/2000/svg">
<path d="M18.7178 5.7832C18.6182 5.41218 18.4228 5.07384 18.1514 4.80202C17.8799 4.53021 17.5418 4.33446 17.1709 4.23438C15.8057 3.86719 10.333 3.86719 10.333 3.86719C10.333 3.86719 4.86035 3.86719 3.49512 4.23242C3.12406 4.33219 2.78579 4.52782 2.51427 4.79969C2.24275 5.07155 2.04754 5.41007 1.94824 5.78125C1.58301 7.14844 1.58301 10 1.58301 10C1.58301 10 1.58301 12.8516 1.94824 14.2168C2.14941 14.9707 2.74316 15.5645 3.49512 15.7656C4.86035 16.1328 10.333 16.1328 10.333 16.1328C10.333 16.1328 15.8057 16.1328 17.1709 15.7656C17.9248 15.5645 18.5166 14.9707 18.7178 14.2168C19.083 12.8516 19.083 10 19.083 10C19.083 10 19.083 7.14844 18.7178 5.7832ZM8.59473 12.6172V7.38281L13.126 9.98047L8.59473 12.6172Z" fill="#D8A3DD"/>
</svg>
